<?xml version="1.0" standalone="no"?>
<!DOCTYPE svg PUBLIC "-//W3C//DTD SVG 20010904//EN"
 "http://www.w3.org/TR/2001/REC-SVG-20010904/DTD/svg10.dtd">
<svg version="1.0" xmlns="http://www.w3.org/2000/svg"
 width="300.000000pt" height="300.000000pt" viewBox="0 0 300.000000 300.000000"
 preserveAspectRatio="xMidYMid meet">
<metadata>
Created by potrace 1.11, written by Peter Selinger 2001-2013
</metadata>
<g transform="translate(0.000000,300.000000) scale(0.100000,-0.100000)"
fill="#000000" stroke="none">
<path d="M1379 2986 c-2 -2 -31 -6 -64 -10 -63 -6 -72 -8 -146 -25 -292 -67
-588 -242 -775 -458 -32 -37 -62 -70 -65 -73 -12 -11 -108 -158 -138 -215
-183 -335 -226 -751 -116 -1130 26 -90 31 -101 91 -230 101 -218 295 -440 512
-585 113 -75 323 -173 419 -195 190 -44 224 -48 378 -49 141 -1 277 8 294 19
4 2 26 6 50 10 117 17 352 114 483 199 278 180 487 440 602 751 31 85 73 267
80 350 7 74 7 258 1 305 -5 43 -17 121 -21 135 -27 119 -39 160 -69 240 -91
241 -225 430 -444 623 -45 40 -202 142 -271 177 -116 58 -262 111 -363 131
-12 2 -47 9 -77 15 -50 10 -353 22 -361 15z m-576 -965 c-2 -10 1 -45 7 -77 6
-32 13 -72 15 -89 6 -36 25 -134 31 -156 7 -24 -34 -32 -46 -9 -5 9 -7 20 -4
22 10 11 -20 58 -38 58 -21 0 -30 -17 -32 -60 -1 -28 -7 -33 -43 -29 -5 0 -7
6 -6 12 1 7 14 77 27 157 29 168 34 195 35 196 1 0 14 -1 30 -4 21 -3 27 -8
24 -21z m380 14 l27 -5 0 -166 c0 -119 -3 -169 -12 -177 -17 -15 -92 -14 -111
2 -12 10 -15 42 -14 174 2 158 2 162 25 173 13 6 31 10 40 8 10 -1 29 -5 45
-9z m203 -179 c0 -173 -1 -182 -19 -181 -20 2 -35 21 -43 58 -3 12 -6 27 -8
32 -2 6 -6 27 -11 48 -13 67 -22 49 -21 -43 2 -90 -3 -104 -34 -91 -13 5 -15
35 -15 184 l0 177 25 0 c24 0 27 -7 52 -97 l27 -98 -2 98 c-2 97 2 108 33 100
14 -4 16 -31 16 -187z m104 123 c14 -67 25 -63 35 12 6 40 10 48 31 52 34 6
36 -3 17 -64 -9 -30 -17 -56 -18 -59 -1 -3 -7 -23 -13 -45 -7 -22 -12 -74 -12
-116 0 -55 -4 -78 -13 -82 -26 -10 -34 8 -33 78 1 63 -10 115 -54 257 -6 18
-5 28 3 31 30 10 44 -6 57 -64z m588 -88 c0 -151 3 -171 27 -171 20 0 21 13
20 173 l-1 147 25 0 26 0 -3 -172 c-2 -95 -7 -177 -12 -182 -15 -15 -100 -13
-113 3 -8 10 -12 67 -13 182 -1 146 1 169 15 172 9 2 19 2 23 0 4 -2 7 -71 6
-152z m259 137 c6 -5 11 -24 11 -43 0 -30 -3 -35 -24 -35 -17 0 -24 6 -24 19
0 11 -5 23 -10 26 -20 13 -35 -14 -35 -62 0 -47 1 -48 32 -49 53 -1 61 -16 61
-105 0 -92 -12 -107 -75 -102 -57 4 -63 9 -63 53 0 36 2 40 25 40 20 0 25 -5
25 -25 0 -19 5 -25 20 -25 19 0 21 5 18 57 -3 54 -5 57 -29 58 -57 3 -59 7
-59 104 0 88 0 89 27 98 29 10 82 5 100 -9z m-1401 -15 c3 -16 12 -48 20 -72
8 -25 14 -52 14 -62 0 -10 4 -20 8 -23 4 -3 7 38 6 90 -1 93 -1 94 22 94 l24
0 0 -184 0 -183 -24 4 c-21 4 -27 16 -46 94 -12 49 -25 89 -29 89 -3 0 -5 -37
-4 -82 3 -101 1 -107 -31 -101 -20 4 -23 9 -18 27 4 11 7 92 6 179 l-1 157 23
0 c18 0 25 -7 30 -27z m745 -20 c11 -27 25 -59 31 -73 9 -24 12 -21 38 45 23
57 32 71 52 73 l24 3 0 -180 c0 -154 -2 -180 -16 -184 -22 -6 -40 3 -34 17 8
20 10 215 2 210 -3 -2 -14 -27 -23 -54 -9 -27 -20 -52 -25 -55 -11 -7 -36 31
-45 68 -14 55 -22 24 -21 -78 1 -79 -2 -106 -12 -110 -33 -12 -37 9 -37 188
l0 177 23 0 c18 0 27 -10 43 -47z m306 35 c4 -7 8 -86 8 -176 l1 -163 -26 -6
c-41 -11 -92 -7 -101 8 -14 23 -11 336 4 342 25 11 106 7 114 -5z m-1100 -479
c19 -13 23 -27 25 -80 l3 -64 -45 0 -45 0 0 40 c0 39 -1 40 -35 40 l-35 0 -3
-242 -2 -243 40 0 40 0 0 80 c0 44 -4 80 -9 80 -14 0 -37 79 -23 81 10 1 95 1
107 0 7 -1 10 -49 8 -143 -5 -178 -6 -180 -119 -182 -66 -1 -82 2 -103 20
l-24 20 1 265 c0 145 1 273 1 285 1 11 10 29 20 41 16 17 31 20 97 19 55 -1
86 -6 101 -17z m177 -308 l-1 -325 -36 1 c-20 0 -40 1 -44 2 -6 1 -8 548 -3
641 0 3 19 6 43 6 l42 1 -1 -326z m317 312 c7 -7 10 -13 7 -13 -4 0 -3 -13 2
-30 l8 -29 -51 2 -52 2 0 -283 c0 -155 -2 -282 -5 -283 -7 -2 -63 -2 -75 0 -6
1 -9 98 -7 278 2 202 0 278 -9 283 -6 4 -29 6 -50 4 -39 -4 -39 -4 -37 29 1
17 5 37 9 43 12 15 245 12 260 -3z m142 -75 c-2 -49 -3 -108 -4 -133 -1 -57 4
-64 44 -62 l32 2 0 141 0 141 45 -1 45 0 0 -325 0 -326 -40 2 c-22 1 -43 2
-47 2 -4 1 -3 14 2 30 4 15 4 34 0 42 -5 7 -7 16 -4 20 5 8 5 77 1 144 -2 39
-3 40 -39 43 -37 3 -38 2 -39 -30 -1 -45 0 -90 3 -178 l2 -74 -37 1 c-20 0
-40 1 -44 2 -5 1 -8 147 -8 325 l0 324 45 -1 45 -2 -2 -87z m311 -190 c-1
-247 1 -280 15 -286 19 -9 42 -9 56 0 6 4 10 109 9 286 l-1 279 48 0 c44 0 47
-1 40 -21 -4 -11 -7 -150 -6 -307 l1 -285 -24 -19 c-35 -26 -166 -28 -198 -3
-22 18 -22 20 -23 312 0 162 -1 298 -2 303 -3 18 2 20 44 20 l42 0 -1 -279z
m454 259 c20 -19 22 -29 22 -141 0 -108 -2 -122 -21 -142 l-21 -23 21 -22 c19
-21 21 -35 21 -143 0 -114 -1 -121 -24 -141 -20 -17 -37 -20 -122 -19 l-99 0
0 310 c0 170 -4 314 -8 321 -10 16 4 19 112 20 84 1 99 -2 119 -20z"/>
<path d="M764 1884 c2 -11 0 -29 -5 -41 -9 -25 5 -41 18 -21 9 15 5 59 -7 72
-5 5 -7 0 -6 -10z"/>
<path d="M1125 1989 c-10 -15 -10 -242 -1 -257 12 -20 36 -13 37 11 5 96 3
234 -5 245 -10 15 -23 16 -31 1z"/>
<path d="M1908 1988 c-2 -7 -4 -69 -3 -137 0 -121 1 -124 23 -127 22 -4 22 -3
22 130 0 113 -2 135 -16 140 -21 8 -21 8 -26 -6z"/>
<path d="M2153 1477 c-8 -13 -10 -187 -3 -188 3 0 18 -3 34 -5 17 -3 32 0 37
7 9 16 11 171 1 184 -10 14 -61 15 -69 2z"/>
<path d="M2149 1178 c-7 -177 -4 -189 43 -179 l33 7 0 94 0 95 -37 3 c-34 3
-38 1 -39 -20z"/>
</g>
</svg>
